HIERARCHY
ROOT Hips
{
  OFFSET 0 0 0
  CHANNELS 6 Xposition Yposition Zposition Zrotation Yrotation Xrotation
  JOINT LeftThigh
  {
    OFFSET 8.409438 0 -5.917753
    CHANNELS 3 Zrotation Yrotation Xrotation
    JOINT LeftLeg
    {
      OFFSET 0 0 -42.358652
      CHANNELS 3 Zrotation Yrotation Xrotation
      JOINT LeftFoot
      {
        OFFSET 0 0 -39.357303
        CHANNELS 3 Zrotation Yrotation Xrotation
      }
    }
  }
  JOINT RightThigh
  {
    OFFSET -8.409438 0 -5.917753
    CHANNELS 3 Zrotation Yrotation Xrotation
    JOINT RightLeg
    {
      OFFSET 0 0 -42.358652
      CHANNELS 3 Zrotation Yrotation Xrotation
      JOINT RightFoot
      {
        OFFSET 0 0 -39.357303
        CHANNELS 3 Zrotation Yrotation Xrotation
      }
    }
  }
  JOINT SpineLow
  {
    OFFSET 0 0 4.719101
    CHANNELS 3 Zrotation Yrotation Xrotation
    JOINT SpineMid
    {
      OFFSET 0 0 12.899191
      CHANNELS 3 Zrotation Yrotation Xrotation
      JOINT Chest
      {
        OFFSET 0 0 12.899191
        CHANNELS 3 Zrotation Yrotation Xrotation
        JOINT LeftShoulder
        {
          OFFSET 7.550562 1.41573 9.438202
          CHANNELS 3 Zrotation Yrotation Xrotation
          JOINT LeftArm
          {
            OFFSET 9.155056 0 4.247191
            CHANNELS 3 Zrotation Yrotation Xrotation
            JOINT LeftForearm
            {
              OFFSET 0 0 25.771955
              CHANNELS 3 Zrotation Yrotation Xrotation
              JOINT LeftHand
              {
                OFFSET 0 0 25.197169
                CHANNELS 3 Zrotation Yrotation Xrotation
              }
            }
          }
        }
        JOINT RightShoulder
        {
          OFFSET -7.550562 1.41573 9.438202
          CHANNELS 3 Zrotation Yrotation Xrotation
          JOINT RightArm
          {
            OFFSET -9.155056 0 4.247191
            CHANNELS 3 Zrotation Yrotation Xrotation
            JOINT RightForearm
            {
              OFFSET 0 0 -25.771955
              CHANNELS 3 Zrotation Yrotation Xrotation
              JOINT RightHand
              {
                OFFSET 0 0 -25.197169
                CHANNELS 3 Zrotation Yrotation Xrotation
              }
            }
          }
        }
        JOINT Neck
        {
          OFFSET 0 0 15.101124
          CHANNELS 3 Zrotation Yrotation Xrotation
          JOINT Head
          {
            OFFSET 0 0 11.325843
            CHANNELS 3 Zrotation Yrotation Xrotation
            End Site
            {
              OFFSET 0 0 14.157303
            }
          }
        }
      }
    }
  }
}
MOTION
Frames: 5
Frame Time: 0.0
0.0  93.25843  0.0  64.217728  -51.618292  -152.266963  38.162544  -51.445657  -57.861881  0.541325  19.56485  84.404922  4.063221  0.099043  -0.920078  17.870724  21.620547  -2.502225  7.978077  13.284418  21.295715  13.037062  5.198215  3.679996  -0.869896  1.889323  2.70278  -2.16722  5.253438  7.332829  -2.16722  5.253438  7.332829  -9.712249  33.488368  6.333063  -160.966273  56.656583  -125.2919  -32.631971  -10.294447  88.576123  71.44327  -31.721503  6.074117  17.079958  -4.415615  21.433395  144.58935  49.960977  75.478474  -7.542858  -29.965001  -113.6248  70.765699  6.19163  -4.24207  14.449131  20.672908  19.313188  10.048063  15.982258  13.82403  
0.0  93.25843  0.0  62.222841  -51.889992  -150.441377  38.229434  -50.380665  -58.584777  1.351758  21.521899  90.076564  4.533137  0.486113  -1.635094  17.429119  20.665301  -2.393283  8.05926  13.122471  21.232752  12.709855  5.147202  3.683743  -0.969213  1.786662  2.61451  -2.456662  4.981097  7.08582  -2.456662  4.981097  7.08582  -9.863899  33.400436  6.253891  -161.260383  56.072669  -125.557969  -32.45512  -10.116084  88.402409  71.044275  -31.603914  6.618074  16.887494  -4.487548  21.347507  143.79966  50.138747  74.291079  -7.492769  -30.193643  -113.352185  70.615929  6.231499  -4.071618  14.60472  20.431381  19.293388  10.175769  15.805565  13.814412  
0.0  93.25843  0.0  60.144564  -52.093042  -148.794177  38.297265  -48.882437  -58.761372  2.27734  23.1475  94.644824  4.886596  0.494299  -1.585993  17.256876  19.597592  -1.870945  7.742168  13.049239  20.949698  12.518474  5.126501  3.773564  -1.063007  1.688843  2.573832  -2.726254  4.722486  6.970333  -2.726254  4.722486  6.970333  -10.055701  33.431505  6.262525  -161.026725  55.800916  -124.81504  -32.383207  -9.695093  87.657527  70.568814  -31.374455  7.28026  16.717423  -4.566709  21.308815  143.230161  50.298357  73.337909  -7.666858  -30.309595  -112.996177  70.527199  6.186579  -3.878368  14.795539  20.20515  19.194011  10.331545  15.63944  13.743949  
0.0  93.25843  0.0  57.918442  -52.178768  -147.129749  38.438772  -46.833641  -58.550456  2.896378  24.302526  98.810426  5.104695  0.462646  -1.572325  17.219418  18.50234  -1.088012  7.320814  12.989874  20.627792  12.113202  4.974145  3.787455  -1.235075  1.555023  2.492638  -3.215787  4.371419  6.740872  -3.215787  4.371419  6.740871  -9.1311  34.186579  6.855174  -160.753951  55.772494  -123.775168  -32.169423  -9.101644  86.88339  70.050721  -31.144766  7.99513  17.003591  -4.385141  21.629674  142.547071  50.442013  72.321405  -8.033636  -30.297211  -112.616477  70.417267  6.111269  -3.682702  15.347418  20.125367  19.253247  10.743395  15.599033  13.773199  
0.0  93.25843  0.0  55.622085  -52.156281  -145.488979  38.447227  -44.487095  -57.706524  3.287239  24.823617  102.435759  5.074971  0.476312  -1.603205  17.073862  17.359475  -0.271795  6.938055  12.903695  20.268778  11.859195  4.901929  3.917694  -1.305381  1.476702  2.491474  -3.415741  4.164691  6.736324  -3.415741  4.164691  6.736324  -9.384204  34.128776  6.919813  -160.383047  55.387915  -122.994495  -31.818489  -8.618401  86.138424  69.57776  -30.874369  8.594721  16.799563  -4.53522  21.575305  141.689148  50.59515  71.25534  -8.347885  -30.21935  -112.321339  70.405141  6.119696  -3.408411  15.481871  19.792639  19.009741  10.867012  15.347168  13.602429  
